<svg width="18" height="16" viewBox="0 0 18 16" fill="none" xmlns="http://www.w3.org/2000/svg">
<path fill-rule="evenodd" clip-rule="evenodd" d="M3.21573 5.54022H1.50817C1.05556 5.54022 0.626982 5.73385 0.340508 6.06786C0.054033 6.40188 -0.0599409 6.84103 0.0302114 7.26393C0.427169 9.1298 1.22375 13.2701 1.55931 14.848C1.70203 15.5184 2.32016 16 3.03748 16H14.8575C15.5748 16 16.1929 15.5184 16.3357 14.848C16.6712 13.2701 17.5729 9.1298 17.9699 7.26393C18.0598 6.84103 17.9459 6.40188 17.6596 6.06786C17.3731 5.73385 16.9445 5.54022 16.4919 5.54022H14.7209L12.717 1.10875C12.4127 0.435824 11.7176 0 10.9491 0C9.90979 0 8.15685 0 7.12821 0C6.37722 0 5.69461 0.416441 5.38 1.06665L3.21573 5.54022ZM1.28803 7.02057C1.27448 6.95753 1.29152 6.89213 1.33424 6.8424C1.37695 6.79267 1.44082 6.76389 1.50817 6.76389H16.4919C16.5593 6.76389 16.6232 6.79267 16.6659 6.8424C16.7086 6.89213 16.7254 6.95753 16.7121 7.02057C16.3151 8.88643 15.4134 13.0268 15.0776 14.6048C15.0565 14.7047 14.9643 14.7763 14.8575 14.7763H3.03748C2.93069 14.7763 2.83849 14.7047 2.81733 14.6048C2.48157 13.0268 1.68499 8.88643 1.28803 7.02057ZM13.3233 5.54022L11.5383 1.59332C11.4368 1.36895 11.2052 1.22368 10.9491 1.22368H7.12821C6.87788 1.22368 6.65034 1.36249 6.54561 1.57923L4.62921 5.54022H13.3233Z" fill="#161616"/>
</svg>
